<svg width="14" height="44" viewBox="0 0 14 44" fill="none" xmlns="http://www.w3.org/2000/svg">
<g clip-path="url(#clip0_8002_2538)">
<path d="M13.0731 17.6825C12.5522 18.0014 12.1207 18.4473 11.8191 18.9783C11.5174 19.5094 11.3554 20.1083 11.3483 20.719C11.3503 21.4064 11.554 22.078 11.934 22.6508C12.314 23.2236 12.8537 23.6723 13.4862 23.9413C13.2368 24.7459 12.8677 25.5084 12.3914 26.2031C11.7098 27.1843 10.9971 28.1654 9.91266 28.1654C8.82826 28.1654 8.54936 27.5354 7.29966 27.5354C6.08096 27.5354 5.64716 28.1861 4.65566 28.1861C3.66416 28.1861 2.97226 27.2772 2.17696 26.1618C1.12643 24.5993 0.54907 22.7668 0.51416 20.8842C0.51416 17.7858 2.52816 16.1437 4.51106 16.1437C5.56456 16.1437 6.44246 16.8356 7.10346 16.8356C7.73346 16.8356 8.71466 16.1023 9.91266 16.1023C10.5286 16.0864 11.139 16.2223 11.6902 16.4978C12.2413 16.7734 12.7162 17.1802 13.0731 17.6825ZM9.34466 14.7907C9.87276 14.1695 10.1717 13.3859 10.1916 12.5707C10.1925 12.4633 10.1821 12.356 10.1606 12.2507C9.25342 12.3393 8.41456 12.7717 7.81606 13.4591C7.28287 14.0556 6.97266 14.8183 6.93816 15.6176C6.93856 15.7148 6.94895 15.8117 6.96916 15.9068C7.04067 15.9204 7.11328 15.9273 7.18606 15.9275C7.60413 15.8943 8.01108 15.7763 8.38216 15.5809C8.75324 15.3855 9.08071 15.1166 9.34466 14.7907Z" fill="black" fill-opacity="0.8"/>
</g>
<defs>
<clipPath id="clip0_8002_2538">
<rect width="14" height="44" fill="white"/>
</clipPath>
</defs>
</svg>
