<svg width="14" height="44" viewBox="0 0 14 44" fill="none" xmlns="http://www.w3.org/2000/svg">
<g clip-path="url(#clip0_8002_2605)">
<path d="M11.3538 16.0283H10.3333C10.2239 15.2173 9.82752 14.4723 9.21606 13.9284C8.60461 13.3845 7.81851 13.0776 7.00027 13.0635C6.18203 13.0776 5.39594 13.3845 4.78448 13.9284C4.17303 14.4723 3.77668 15.2173 3.66727 16.0283H2.64727C2.08606 16.0286 1.54793 16.2517 1.15102 16.6485C0.754109 17.0452 0.530856 17.5833 0.530273 18.1445V25.86C0.530776 26.4211 0.753878 26.9591 1.15062 27.356C1.54736 27.7528 2.08533 27.976 2.64647 27.9767H11.3535C11.9147 27.9762 12.4528 27.753 12.8497 27.3562C13.2466 26.9593 13.4698 26.4212 13.4703 25.86V18.1445C13.4697 17.5834 13.2465 17.0454 12.8497 16.6486C12.4529 16.2519 11.9149 16.0288 11.3538 16.0283ZM7.00027 14.1631C7.52768 14.1745 8.03539 14.3656 8.43946 14.7048C8.84352 15.0439 9.11975 15.5108 9.22247 16.0283H4.77807C4.8808 15.5108 5.15702 15.0439 5.56109 14.7048C5.96516 14.3656 6.47286 14.1745 7.00027 14.1631ZM12.3703 25.86C12.37 26.1296 12.2628 26.388 12.0722 26.5787C11.8817 26.7693 11.6233 26.8767 11.3537 26.8771H2.64677C2.37722 26.8766 2.11883 26.7693 1.92828 26.5786C1.73773 26.388 1.63056 26.1295 1.63027 25.86V18.1445C1.63059 17.875 1.7378 17.6166 1.92838 17.426C2.11896 17.2354 2.37735 17.1282 2.64687 17.1279H11.3539C11.6234 17.1282 11.8817 17.2355 12.0722 17.4261C12.2628 17.6166 12.37 17.875 12.3703 18.1445V25.86Z" fill="black" fill-opacity="0.8"/>
</g>
<defs>
<clipPath id="clip0_8002_2605">
<rect width="14" height="44" fill="white"/>
</clipPath>
</defs>
</svg>
