<svg width="15" height="44" viewBox="0 0 15 44" fill="none" xmlns="http://www.w3.org/2000/svg">
<g clip-path="url(#clip0_8002_2599)">
<path d="M14.2982 27.202L10.4282 23.332C11.1292 22.403 11.5502 21.251 11.5502 20C11.5502 16.94 9.0612 14.45 6.0002 14.45C2.9402 14.45 0.450195 16.94 0.450195 20C0.450195 23.061 2.9402 25.55 6.0002 25.55C7.2512 25.55 8.4032 25.129 9.3322 24.428L13.2022 28.298C13.3532 28.449 13.5522 28.526 13.7502 28.526C13.9482 28.526 14.1462 28.45 14.2982 28.298C14.6012 27.995 14.6012 27.505 14.2982 27.202ZM1.5502 20C1.5502 17.546 3.5472 15.55 6.0002 15.55C8.4542 15.55 10.4502 17.547 10.4502 20C10.4502 22.453 8.4542 24.45 6.0002 24.45C3.5462 24.45 1.5502 22.454 1.5502 20Z" fill="black" fill-opacity="0.8"/>
</g>
<defs>
<clipPath id="clip0_8002_2599">
<rect width="15" height="44" fill="white"/>
</clipPath>
</defs>
</svg>
